<?xml version="1.0" encoding="iso-8859-1"?>
<!-- Uploaded to: SVG Repo, www.svgrepo.com, Generator: SVG Repo Mixer Tools -->
<svg version="1.1" id="Layer_1" xmlns="http://www.w3.org/2000/svg" xmlns:xlink="http://www.w3.org/1999/xlink" 
	 viewBox="0 0 502 502" xml:space="preserve">
<g>
	<rect x="10" y="380.476" style="fill:#FFB86C;" width="92" height="56.578"/>
	<path style="fill:#3B7BC0;" d="M305.946,64.946c-102.755,0-186.054,83.299-186.054,186.054c0,50.33,19.993,95.984,52.459,129.476
		H102v56.578h203.946C408.701,437.054,492,353.755,492,251S408.701,64.946,305.946,64.946z"/>
	<path d="M208.029,345.027c-2.813,0-5.607-1.179-7.585-3.478c-11.145-12.952-19.742-27.625-25.554-43.612
		c-1.887-5.19,0.792-10.928,5.982-12.814c5.188-1.889,10.928,0.792,12.814,5.982c4.981,13.705,12.355,26.288,21.917,37.399
		c3.603,4.187,3.129,10.5-1.058,14.103C212.659,344.231,210.338,345.027,208.029,345.027z"/>
	<path d="M352.729,207.369c-2.329,0-4.668-0.809-6.562-2.457c-10.842-9.438-24.739-14.635-39.133-14.635c-5.522,0-10-4.478-10-10
		s4.478-10,10-10c19.221,0,37.781,6.942,52.264,19.549c4.166,3.627,4.604,9.943,0.978,14.108
		C358.298,206.206,355.521,207.369,352.729,207.369z"/>
	<path d="M307.034,329.546c-43.911,0-79.635-35.724-79.635-79.634c0-5.522,4.478-10,10-10s10,4.478,10,10
		c0,32.882,26.752,59.634,59.635,59.634c32.882,0,59.634-26.752,59.634-59.634c0-5.522,4.478-10,10-10s10,4.478,10,10
		C386.668,293.822,350.944,329.546,307.034,329.546z"/>
	<path d="M305.945,54.945c-108.104,0-196.054,87.95-196.054,196.055c0,43.676,14.279,85.346,40.598,119.477H102H10
		c-5.522,0-10,4.478-10,10v56.578c0,5.522,4.478,10,10,10h92h203.945C414.05,447.055,502,359.104,502,251
		S414.05,54.945,305.945,54.945z M20,390.477h72v36.578H20V390.477z M307.034,390.477c77.508,0,140.564-63.057,140.564-140.564
		s-63.057-140.564-140.564-140.564S166.47,172.404,166.47,249.912c0,5.522,4.478,10,10,10s10-4.478,10-10
		c0-66.479,54.085-120.564,120.564-120.564s120.564,54.085,120.564,120.564s-54.085,120.564-120.564,120.564h-130.38
		c-30.188-32.63-46.762-74.891-46.762-119.477c0-97.077,78.978-176.055,176.054-176.055C403.022,74.945,482,153.923,482,251
		s-78.978,176.055-176.055,176.055H112v-36.578H307.034z"/>
</g>
</svg>